<svg id="Capa_1" data-name="Capa 1" xmlns="http://www.w3.org/2000/svg" viewBox="0 0 63.18 53.48"><defs><style>.cls-1{fill:#01afaf;}.cls-2{fill:none;stroke:#01afaf;stroke-linecap:square;stroke-linejoin:bevel;stroke-width:3.05px;}</style></defs><title>logoCurvaAragon</title><path class="cls-1" d="M267.48,443.28h-5.17a2,2,0,0,0,.74,1.35,2.43,2.43,0,0,0,1.57.51,2.38,2.38,0,0,0,1.84-.77l.63.74a2.61,2.61,0,0,1-1.07.77,4,4,0,0,1-3.23-.15,2.86,2.86,0,0,1-1.2-1.16,3.23,3.23,0,0,1-.43-1.68,3.44,3.44,0,0,1,.41-1.67,3,3,0,0,1,1.14-1.16,3.36,3.36,0,0,1,1.65-.41,3.22,3.22,0,0,1,1.62.41,2.91,2.91,0,0,1,1.12,1.16,3.54,3.54,0,0,1,.4,1.71A2.44,2.44,0,0,1,267.48,443.28ZM263,441.12a2,2,0,0,0-.66,1.33h4.09a2,2,0,0,0-.66-1.32,2,2,0,0,0-1.38-.51A2,2,0,0,0,263,441.12Z" transform="translate(-260.84 -395)"/><path class="cls-1" d="M274.43,440.35a2.75,2.75,0,0,1,.72,2.06v3.67H274v-3.54a2,2,0,0,0-.44-1.39,1.69,1.69,0,0,0-1.28-.47,2,2,0,0,0-1.47.55,2.12,2.12,0,0,0-.55,1.56v3.29H269.1v-6.37h1.11v1a2.22,2.22,0,0,1,.94-.76,3.25,3.25,0,0,1,1.35-.26A2.63,2.63,0,0,1,274.43,440.35Z" transform="translate(-260.84 -395)"/><path class="cls-1" d="M286,444h-4.46l-.93,2.11h-1.24l3.81-8.42h1.19l3.82,8.42H287Zm-.42-1-1.81-4.12L282,443Z" transform="translate(-260.84 -395)"/><path class="cls-1" d="M291.31,439.93a3.26,3.26,0,0,1,1.43-.28v1.11h-.27a2,2,0,0,0-1.47.56,2.18,2.18,0,0,0-.53,1.59v3.18h-1.16v-6.37h1.11v1.07A2,2,0,0,1,291.31,439.93Z" transform="translate(-260.84 -395)"/><path class="cls-1" d="M298.49,440.29a2.52,2.52,0,0,1,.7,1.94v3.85H298.1v-.85a1.81,1.81,0,0,1-.83.68,3,3,0,0,1-1.26.24,2.63,2.63,0,0,1-1.72-.52,1.78,1.78,0,0,1,0-2.71,3,3,0,0,1,1.95-.51H298v-.23a1.47,1.47,0,0,0-.44-1.14,1.82,1.82,0,0,0-1.27-.4,3.5,3.5,0,0,0-1.11.19,2.75,2.75,0,0,0-.91.5l-.48-.87a3.55,3.55,0,0,1,1.18-.6,4.89,4.89,0,0,1,1.45-.21A2.91,2.91,0,0,1,298.49,440.29ZM297.34,445a1.69,1.69,0,0,0,.7-.83v-.89h-1.78c-1,0-1.47.33-1.47,1a.89.89,0,0,0,.38.76,1.64,1.64,0,0,0,1,.28A2.11,2.11,0,0,0,297.34,445Z" transform="translate(-260.84 -395)"/><path class="cls-1" d="M307.46,439.71v5.5a3.3,3.3,0,0,1-.83,2.47,3.45,3.45,0,0,1-2.48.8,5.77,5.77,0,0,1-1.72-.25,3.45,3.45,0,0,1-1.32-.7l.56-.89a3.19,3.19,0,0,0,1.09.61,4.45,4.45,0,0,0,1.36.22,2.29,2.29,0,0,0,1.65-.53,2.16,2.16,0,0,0,.53-1.61v-.5a2.52,2.52,0,0,1-1,.73,3.26,3.26,0,0,1-1.29.25,3.46,3.46,0,0,1-1.65-.39,2.84,2.84,0,0,1-1.16-1.09,3.09,3.09,0,0,1-.42-1.61,3.06,3.06,0,0,1,.42-1.6,2.84,2.84,0,0,1,1.16-1.09,3.46,3.46,0,0,1,1.65-.38,3.3,3.3,0,0,1,1.34.26,2.53,2.53,0,0,1,1,.78v-1Zm-2.2,4.83a1.92,1.92,0,0,0,.78-.74,2.08,2.08,0,0,0,.29-1.08,2,2,0,0,0-.62-1.49,2.2,2.2,0,0,0-1.57-.57,2.25,2.25,0,0,0-1.59.57,2,2,0,0,0-.61,1.49,2.17,2.17,0,0,0,.28,1.08,2.06,2.06,0,0,0,.78.74,2.52,2.52,0,0,0,1.14.26A2.4,2.4,0,0,0,305.26,444.54Z" transform="translate(-260.84 -395)"/><path class="cls-1" d="M310.68,445.73a3.09,3.09,0,0,1-1.19-1.16,3.57,3.57,0,0,1,0-3.36,3.06,3.06,0,0,1,1.19-1.15,3.73,3.73,0,0,1,3.4,0,3,3,0,0,1,1.18,1.15,3.5,3.5,0,0,1,0,3.36,3.06,3.06,0,0,1-1.18,1.16,3.65,3.65,0,0,1-3.4,0Zm2.8-.87a2,2,0,0,0,.77-.8,2.67,2.67,0,0,0,0-2.34,2,2,0,0,0-.77-.79,2.21,2.21,0,0,0-1.1-.27,2.27,2.27,0,0,0-1.1.27,2,2,0,0,0-.76.79,2.51,2.51,0,0,0,0,2.34,2,2,0,0,0,.76.8,2.28,2.28,0,0,0,1.1.28A2.22,2.22,0,0,0,313.48,444.86Zm-.38-7.64h1.47l-2,1.56h-1.08Z" transform="translate(-260.84 -395)"/><path class="cls-1" d="M322.62,440.35a2.78,2.78,0,0,1,.71,2.06v3.67h-1.15v-3.54a1.94,1.94,0,0,0-.45-1.39,1.67,1.67,0,0,0-1.27-.47,2,2,0,0,0-1.48.55,2.11,2.11,0,0,0-.54,1.56v3.29h-1.15v-6.37h1.1v1a2.28,2.28,0,0,1,.94-.76,3.27,3.27,0,0,1,1.36-.26A2.63,2.63,0,0,1,322.62,440.35Z" transform="translate(-260.84 -395)"/><path class="cls-1" d="M263.55,433.53a5.18,5.18,0,0,1-2-7.19,5,5,0,0,1,2-1.83,6.13,6.13,0,0,1,2.89-.67,5.49,5.49,0,0,1,2.77.67,3.92,3.92,0,0,1,1.73,1.89l-2.26,1.22a2.46,2.46,0,0,0-2.26-1.39,2.52,2.52,0,0,0-1.88.75,3.14,3.14,0,0,0,0,4.07,2.52,2.52,0,0,0,1.88.75,2.44,2.44,0,0,0,2.26-1.38l2.26,1.23a4,4,0,0,1-1.73,1.87,5.59,5.59,0,0,1-2.77.67A6.24,6.24,0,0,1,263.55,433.53Z" transform="translate(-260.84 -395)"/><path class="cls-1" d="M283.22,424V434h-2.77v-1.2a3.72,3.72,0,0,1-1.38,1,4.33,4.33,0,0,1-1.74.35,4.26,4.26,0,0,1-3.13-1.14,4.52,4.52,0,0,1-1.16-3.38V424H276v5.25q0,2.43,2,2.43a2.19,2.19,0,0,0,1.68-.68,2.9,2.9,0,0,0,.63-2v-5Z" transform="translate(-260.84 -395)"/><path class="cls-1" d="M291.61,424.22a5.19,5.19,0,0,1,2-.38v2.69l-.65,0a2.65,2.65,0,0,0-2,.71,2.78,2.78,0,0,0-.71,2.1V434h-2.92V424h2.79v1.33A3.05,3.05,0,0,1,291.61,424.22Z" transform="translate(-260.84 -395)"/><path class="cls-1" d="M322.77,424.81a4.27,4.27,0,0,1,1.25,3.35v5.73h-2.73v-1.25a3.24,3.24,0,0,1-3.06,1.4,4.81,4.81,0,0,1-2-.39,3,3,0,0,1-1.3-1.08,2.9,2.9,0,0,1-.44-1.57,2.63,2.63,0,0,1,1-2.21,5.41,5.41,0,0,1,3.26-.8h2.32a1.9,1.9,0,0,0-.58-1.47,2.58,2.58,0,0,0-1.74-.51,5,5,0,0,0-1.58.25,4.44,4.44,0,0,0-1.32.68l-1-2a6.16,6.16,0,0,1,2-.9,8.84,8.84,0,0,1,2.36-.31A5.25,5.25,0,0,1,322.77,424.81Zm-2.49,6.93a2,2,0,0,0,.83-1v-1h-2c-1.2,0-1.8.39-1.8,1.18a1,1,0,0,0,.44.88,2,2,0,0,0,1.21.33A2.5,2.5,0,0,0,320.28,431.74Z" transform="translate(-260.84 -395)"/><path class="cls-2" d="M268,419.36c7.52-18.75,15.88-27.93,22.52-20,7.34,8.81,6.4,31.17,13.88,33,2.44.59,4.55-2.78,5.53-6.81" transform="translate(-260.84 -395)"/></svg>