<svg class="icoCookie" data-name="icoCookie" xmlns="http://www.w3.org/2000/svg" viewBox="0 0 512 512"><defs><style>.cls-1{fill:#01afaf;}</style></defs><title>ico_cookies</title><path class="cls-1" d="M386,256a10,10,0,1,1-10-10A10,10,0,0,1,386,256Z" transform="translate(0 0)"/><path class="cls-1" d="M286,196a10,10,0,1,1-10-10A10,10,0,0,1,286,196Z" transform="translate(0 0)"/><path class="cls-1" d="M266,406a10,10,0,1,1-10-10A10,10,0,0,1,266,406Z" transform="translate(0 0)"/><path class="cls-1" d="M116,226a10,10,0,1,1-10-10A10,10,0,0,1,116,226Z" transform="translate(0 0)"/><path class="cls-1" d="M146,396a40,40,0,1,0-40-40A40.05,40.05,0,0,0,146,396Zm0-60a20,20,0,1,1-20,20A20,20,0,0,1,146,336Z" transform="translate(0 0)"/><path class="cls-1" d="M236,126a40,40,0,1,0-40,40A40.05,40.05,0,0,0,236,126Zm-60,0a20,20,0,1,1,20,20A20,20,0,0,1,176,126Z" transform="translate(0 0)"/><path class="cls-1" d="M306,346a40,40,0,1,0,40-40A40.05,40.05,0,0,0,306,346Zm60,0a20,20,0,1,1-20-20A20,20,0,0,1,366,346Z" transform="translate(0 0)"/><path class="cls-1" d="M236,306a30,30,0,1,0-30-30A30,30,0,0,0,236,306Zm0-40a10,10,0,1,1-10,10A10,10,0,0,1,236,266Z" transform="translate(0 0)"/><path class="cls-1" d="M266,502a10,10,0,1,1-10-10A10,10,0,0,1,266,502Z" transform="translate(0 0)"/><path class="cls-1" d="M494.4,210.43c-6.49,3.28-16.94,5.57-25.4,5.57-19.87,0-39.45-11.48-47.61-27.93a10,10,0,0,0-11.82-5.13A64,64,0,0,1,391,186a65.08,65.08,0,0,1-65-65,64,64,0,0,1,3.06-18.57,10,10,0,0,0-5.13-11.82C307.48,82.45,296,62.87,296,43c0-8.46,2.29-18.91,5.57-25.4a10,10,0,0,0-7.4-14.39A247,247,0,0,0,256,0C118,0,0,117.8,0,256,0,376,90,484.12,209.29,507.46a10,10,0,1,0,3.84-19.62C103,466.3,20,366.63,20,256,20,128.07,128.07,20,256,20a206.26,206.26,0,0,1,23,1.35A85.56,85.56,0,0,0,276,43c0,24.27,12.8,48.35,31.9,61.35A76.24,76.24,0,0,0,306,121a85.1,85.1,0,0,0,85,85,76.24,76.24,0,0,0,16.65-1.9c13,19.1,37.08,31.9,61.35,31.9a85.56,85.56,0,0,0,21.65-3A206.26,206.26,0,0,1,492,256c0,110.63-83,210.3-193.13,231.84a10,10,0,0,0,3.84,19.62C422,484.12,512,376,512,256a247,247,0,0,0-3.21-38.17A10,10,0,0,0,494.4,210.43Z" transform="translate(0 0)"/></svg>