<svg id="icoUci" data-name="icoUci" xmlns="http://www.w3.org/2000/svg" viewBox="0 0 512 427.69"><defs><style>.cls-1{fill:#01afaf;}</style></defs><title>ico_uci</title><path class="cls-1" d="M81.31,92.28a10,10,0,1,0-7.07-2.93A10.08,10.08,0,0,0,81.31,92.28Z" transform="translate(0 -43)"/><path class="cls-1" d="M502,253.3H477q15-30.78,15-57.08C492,111.73,428.79,43,351.09,43,315.93,43,281.84,57.51,256,83.16,230.16,57.51,196.07,43,160.91,43a130.5,130.5,0,0,0-43.85,7.56,10,10,0,1,0,6.7,18.85A110.57,110.57,0,0,1,160.9,63c33.39,0,64.48,14.68,87.54,41.34a10,10,0,0,0,15.12,0C286.62,77.68,317.71,63,351.09,63,417.76,63,472,122.76,472,196.22c0,16.79-6,35.95-17.59,57.08H363.32a10,10,0,0,0-7.06,2.91L335,277.35,314,256.24a10,10,0,0,0-16.59,4l-20.95,64.56L251.05,143.13a10,10,0,0,0-19.48-1.53L200.29,244.45,184,228.08a10,10,0,0,0-7.07-2.94h0a10,10,0,0,0-7.08,2.93l-25.26,25.25H57.6C46,232.18,40,213,40,196.22a142.23,142.23,0,0,1,20.65-74.47,10,10,0,0,0-17-10.46A162.25,162.25,0,0,0,20,196.22q0,26.26,15,57.1H10a10,10,0,0,0,0,20H46q29,47.42,90.17,104A1113.11,1113.11,0,0,0,250.38,469a10,10,0,0,0,11.24,0,1113.11,1113.11,0,0,0,114.17-91.61q61.07-56.5,90.18-104h36a10,10,0,0,0,0-20ZM362.38,362.51c-45.11,41.76-90.77,75-106.38,86-15.58-11-61.11-44.11-106.21-85.84-34.69-32.09-61.45-62.1-79.89-89.34h78.78a10,10,0,0,0,7.07-2.93l21.12-21.1,21,21.1a10,10,0,0,0,16.65-4.16l22.94-75.42,25.1,179.75a10,10,0,0,0,9,8.58,8.64,8.64,0,0,0,.88,0,10,10,0,0,0,9.5-6.91l29.32-90.33,16.58,16.61a10,10,0,0,0,14.13,0l25.4-25.27h74.66C423.7,300.51,397,330.47,362.38,362.51Z" transform="translate(0 -43)"/></svg>