<svg class="icoGithub" xmlns="http://www.w3.org/2000/svg" viewBox="0 0 491.51 491.34"><defs><style>.cls-1{fill:#01afaf;}</style></defs><title>ico_gitHub</title><path class="cls-1" d="M483,287.93a14.5,14.5,0,0,0-16.53,12.13l-.29,1.85a14.5,14.5,0,0,0,12.13,16.53,14,14,0,0,0,2.22.17,14.51,14.51,0,0,0,14.32-12.29l.28-1.85A14.5,14.5,0,0,0,483,287.93Z" transform="translate(-11.71 -5.42)"/><path class="cls-1" d="M503.2,239.69c-.42-7.79-2-18.53-3.07-25.35h0l-.27-1.6c-.46-2.83-.79-4.71-.84-5s-.07-.29-.1-.44C477.75,93.26,377.16,5.42,257.38,5.42,122.36,5.42,11.71,117,11.71,252.05c0,134.24,109.64,244.71,245.67,244.71a245.2,245.2,0,0,0,175.28-73.5,260.07,260.07,0,0,0,37.83-48.56,14.5,14.5,0,0,0-24.8-15A238,238,0,0,1,427.18,386l-.09-.13a218.74,218.74,0,0,1-20.47,22.23q-4.78,4.45-9.74,8.46a15.34,15.34,0,0,0-1.64,1.58,216.38,216.38,0,0,1-65.88,37.15v-59c0-16.41-3.46-27.35-8.06-35.41,43.76-11.8,74.85-37.71,88.67-74.85,14.68-39.15,8.06-85.79-16.41-118,4.32-19.29,4.32-50.09-6.05-64.49a22.46,22.46,0,0,0-19-9.78h-.29c-22.32,1.2-39.89,12.44-58.73,23.89a202.85,202.85,0,0,0-52.39-6.91,198.79,198.79,0,0,0-51.53,6.91c-19.83-12-37.23-22.72-60.18-23.89-7.19,0-13.53,3.45-18.14,9.78-10.36,14.4-10.36,45.2-6,64.49-24.47,32.25-31.09,79.17-16.41,118,13.82,37.14,44.91,63.05,88.67,74.85-3.57,6.25-6.39,14.31-7.51,25.22-8.84,3.05-16.5,4.05-23.63,2-7.52-2.22-13.38-7.24-18.47-15.8C132.42,353,113,337.35,90.78,339.39l2.53,28.67c10.26-.94,20.48,9.93,25.79,18.88,8.76,14.75,20.56,24.42,35.07,28.71,10.78,3.17,20.63,3.1,31.24.83V455.3C101.63,425.94,40.5,345.9,40.5,252.05c0-119.19,97.7-217.84,216.88-217.84,105.11,0,193.48,76.72,212.9,176.58a14.5,14.5,0,0,0,.2,2.07c0,.19,3.21,18.15,3.77,28.41A14.5,14.5,0,0,0,488.71,255c.27,0,.54,0,.8,0A14.49,14.49,0,0,0,503.2,239.69ZM131.57,275.94c-11.51-30.8-5.47-69.38,15.26-93.85,3.17-3.74,5.76-10.08,3.46-16.7-4.32-13.24-3.74-34.26-.87-42.32,15.27,2.18,31,13.11,44.05,21,6,3.52,9.2,2.59,12.09,2.88,10.52-2.19,26.93-7.49,52.11-7.49a176.25,176.25,0,0,1,48.08,6.91c2.89-.07,7.52,2.38,15.55-2.3,13.68-8.34,28.84-18.9,44.05-21,2.87,8.06,3.45,29.08-.87,42.32-2.3,6.62.29,13,3.46,16.7,20.73,24.47,26.77,63,15.26,93.85-8.93,23-31.38,52.69-88.39,61l-22.16,3.45c13.58,20.51,15,23,17.85,26.2,5.75,7.77,10.07,13.53,10.07,29.65v67.37a218,218,0,0,1-86.37,0V396.28c0-16.12,4.32-21.88,10.08-29.65,2.93-3.35,4.7-6.36,17.84-26.2L220,337C163,328.63,140.5,299,131.57,275.94Z" transform="translate(-11.71 -5.42)"/></svg>