<svg id="icoIngresos" xmlns="http://www.w3.org/2000/svg" viewBox="0 0 512 512"><defs><style>.cls-1{fill:#01afaf;}</style></defs><title>ico_ingresos</title><path class="cls-1" d="M502,313.63a10,10,0,1,0,10,10A10,10,0,0,0,502,313.63Z" transform="translate(0 0)"/><path class="cls-1" d="M231,79.64h15V94.48a10,10,0,1,0,20,0V79.64h15a10,10,0,0,0,0-20H266V44.79a10,10,0,0,0-20,0V59.64H231a10,10,0,0,0,0,20Z" transform="translate(0 0)"/><path class="cls-1" d="M502,184.87H406V69.64a10,10,0,0,0-10-10H331V10A10,10,0,0,0,321,0H191a10,10,0,0,0-10,10V59.64H116a10,10,0,0,0-10,10V184.87H10a10,10,0,0,0-10,10V502a10,10,0,0,0,10,10H502a10,10,0,0,0,10-10V462.24h0V368.63a10,10,0,0,0-20,0v83.61H406V244.63h86v34a10,10,0,0,0,20,0V194.87A10,10,0,0,0,502,184.87ZM341,452.24V347.94a10,10,0,0,0-10-10H181a10,10,0,0,0-10,10v104.3H126V119.39h55v19.82a10,10,0,0,0,10,10H321a10,10,0,0,0,10-10V119.39h55V452.24ZM321,492H266V357.94h55ZM20,452.24V244.63h86V452.24ZM386,79.64V99.39H331V79.64ZM201,20H311V129.21H201ZM126,79.64h55V99.39H126ZM20,204.87h86v19.76H20Zm0,267.37H171V492H20Zm171-114.3h55V492H191ZM492,492H341V472.24H492ZM406,224.63V204.87h86v19.76Z" transform="translate(0 0)"/></svg>