<svg class="icoInformacion" data-name="icoInformacion" xmlns="http://www.w3.org/2000/svg" viewBox="0 0 260.93 272.88"><defs><style>.cls-3{fill:#6fd8d0;}.cls-2{fill:#01afaf;}</style></defs><title>ico_informacion</title><path class="cls-3" d="M172.75,372.83a10,10,0,0,1-9.4-13.41l18.76-51.66a129,129,0,0,1-24.91-76.38C157.2,160,215.28,102,286.67,102S416.13,160,416.13,231.42h0c-.07,71.3-58.15,129.38-129.45,129.45h-.38a127.35,127.35,0,0,1-48.09-9.38l-62.29,20.81A9.93,9.93,0,0,1,172.75,372.83ZM286.67,122a109.46,109.46,0,0,0-88,174.51,18.47,18.47,0,0,1,2.54,17.39l-12,32.94,43.17-14.43a18.73,18.73,0,0,1,12.93.43,107.82,107.82,0,0,0,41.33,8.09,109.47,109.47,0,1,0,0-218.93ZM406.13,231.42h0Z" transform="translate(-156.2 -100.95)"/><path class="cls-3" d="M172.75,373.83a11,11,0,0,1-10.34-14.76L181,307.92a130,130,0,0,1-24.79-76.54C156.2,159.46,214.73,101,286.67,101s130.46,58.53,130.46,130.47S358.54,361.81,286.68,361.88h-.38a128.41,128.41,0,0,1-48.12-9.31l-62,20.69A10.85,10.85,0,0,1,172.75,373.83ZM286.67,103c-70.84,0-128.47,57.61-128.47,128.43a128,128,0,0,0,24.72,75.79l.31.43-18.94,52.16a9.06,9.06,0,0,0,2,9.35,9.17,9.17,0,0,0,9.3,2.26l62.65-20.94.34.14a126.29,126.29,0,0,0,47.71,9.31h.38c70.75-.07,128.38-57.7,128.45-128.45S357.5,103,286.67,103Zm-99.1,245.44,12.66-34.88a17.5,17.5,0,0,0-2.41-16.46,110.46,110.46,0,1,1,88.82,44.83h-.1a109,109,0,0,1-41.61-8.16,17.69,17.69,0,0,0-12.23-.41ZM286.67,123a108.46,108.46,0,0,0-87.24,172.91,19.49,19.49,0,0,1,2.68,18.33l-11.25,31,41.21-13.77a19.7,19.7,0,0,1,13.62.46,107.05,107.05,0,0,0,40.85,8h.1a108.47,108.47,0,1,0,0-216.93ZM406.14,232.42v-2h0Z" transform="translate(-156.2 -100.95)"/><path class="cls-2" d="M286.67,256.22a18.83,18.83,0,1,0-18.83-18.83A18.82,18.82,0,0,0,286.67,256.22Z" transform="translate(-156.2 -100.95)"/><path class="cls-2" d="M339.84,256.22A18.83,18.83,0,1,0,321,237.39,18.83,18.83,0,0,0,339.84,256.22Z" transform="translate(-156.2 -100.95)"/><path class="cls-2" d="M233.49,256.22a18.83,18.83,0,1,0-18.82-18.83A18.83,18.83,0,0,0,233.49,256.22Z" transform="translate(-156.2 -100.95)"/></svg>