<svg class="icoFallecimientos" data-name="icoFallecimientos" xmlns="http://www.w3.org/2000/svg" viewBox="0 0 514.89 515"><defs><style>.cls-1{fill:#01afaf;stroke:#01afaf;stroke-miterlimit:10;stroke-width:3px;}</style></defs><title>ico_fallecimientos</title><path class="cls-1" d="M356.27,251.19a56.86,56.86,0,0,1-56.79-56.79,10,10,0,1,1,20,0,36.79,36.79,0,1,0,73.57,0,10,10,0,0,1,20,0A56.85,56.85,0,0,1,356.27,251.19Z" transform="translate(1.5 1.5)"/><path class="cls-1" d="M155.62,251.19A56.85,56.85,0,0,1,98.84,194.4a10,10,0,0,1,20,0,36.78,36.78,0,1,0,73.56,0,10,10,0,0,1,20,0A56.85,56.85,0,0,1,155.62,251.19Z" transform="translate(1.5 1.5)"/><path class="cls-1" d="M350.8,408a10,10,0,0,1-8.66-5,99.52,99.52,0,0,0-172.39,0,10,10,0,0,1-17.31-10,119.52,119.52,0,0,1,207,0,10,10,0,0,1-3.65,13.66A9.89,9.89,0,0,1,350.8,408Z" transform="translate(1.5 1.5)"/><path class="cls-1" d="M371,365.35A42.44,42.44,0,0,1,328.64,323c0-21,29.4-51.58,35.29-57.51a10,10,0,0,1,14.18,0c5.9,5.93,35.3,36.55,35.3,57.51A42.44,42.44,0,0,1,371,365.35Zm0-78.24c-11.75,13.24-22.38,28.77-22.38,35.84a22.39,22.39,0,1,0,44.77,0C393.41,315.88,382.78,300.35,371,287.11Z" transform="translate(1.5 1.5)"/><path class="cls-1" d="M255.94,512A256,256,0,0,1,75,75,256,256,0,0,1,401.43,45.35,10,10,0,0,1,390.05,61.8,234.52,234.52,0,0,0,255.94,20C125.84,20,20,125.87,20,256S125.84,492,255.94,492s236-105.87,236-236a234.85,234.85,0,0,0-40.3-131.95,10,10,0,0,1,16.58-11.19A256,256,0,0,1,255.94,512Z" transform="translate(1.5 1.5)"/><path class="cls-1" d="M430.85,93.06a10,10,0,1,1,9.8-8A10.07,10.07,0,0,1,430.85,93.06Z" transform="translate(1.5 1.5)"/></svg>