<svg id="icoConfirmados" data-name="icoConfirmados" xmlns="http://www.w3.org/2000/svg" viewBox="0 0 512 512"><defs><style>.cls-1{fill:#01afaf;}</style></defs><title>ico_confirmados</title><path class="cls-1" d="M459.67,293.5A40.25,40.25,0,0,0,439.34,299l-36.2-13.78A150.68,150.68,0,0,0,406,256a148.68,148.68,0,0,0-24.85-82.72L436.46,118A59.91,59.91,0,1,0,394,75.54l-55.31,55.31a148.21,148.21,0,0,0-42.5-19.4l7.13-34.33a30,30,0,1,0-25.26-8.51,30.18,30.18,0,0,0,5.67,4.46l-7.13,34.34A153.41,153.41,0,0,0,256,106a150.27,150.27,0,0,0-105.26,43.14L80,98a40,40,0,1,0-29.26,40.54l70.75,51.11a149.86,149.86,0,0,0-10.67,103.76l-33.36,11a29.79,29.79,0,0,0-15.95-10.61,30,30,0,1,0,22.23,29.6l33.36-11a150.36,150.36,0,0,0,32.09,48.85L98,432.05a39.94,39.94,0,1,0,40.54,29.26l51.1-70.75a150.53,150.53,0,0,0,140.15-3.86l30.17,46a30,30,0,1,0,16.72-11l-30.17-46A150,150,0,0,0,385.36,332l36.22,13.78a40,40,0,1,0,38.09-52.27ZM63.35,325.39a10,10,0,1,1-1-7.59A10,10,0,0,1,63.35,325.39Zm320.5,115.44a10,10,0,1,1-10,10A10,10,0,0,1,383.85,440.83ZM292.24,40.32a10,10,0,0,1,14.13,0,10,10,0,1,1-17.07,7.07A9.9,9.9,0,0,1,292.24,40.32ZM477,343.51a20,20,0,0,1-36.63-4.8,20.63,20.63,0,0,1-.44-2,10,10,0,0,0-6.31-7.74L384.34,310.2a10,10,0,0,0-12.47,4.8,130.13,130.13,0,0,1-43.58,49.15,8.45,8.45,0,0,0-1,.55c-.31.2-.59.42-.87.64A130.34,130.34,0,0,1,191.61,369a10,10,0,0,0-13.07,2.82l-59.27,82.08a10,10,0,0,0-1,9.95A19.94,19.94,0,1,1,102,452.1a10,10,0,0,0,9.12-4.09l59.29-82.1A10,10,0,0,0,169,352.62a130,130,0,0,1-26-161,10,10,0,0,0-2.82-13.06L58.14,119.27a10,10,0,0,0-10-1A19.94,19.94,0,1,1,59.9,102,10,10,0,0,0,64,111.16l82.1,59.29A10,10,0,0,0,159.38,169,130.41,130.41,0,0,1,282.1,128.6l.33.09.18,0a128.9,128.9,0,0,1,51.24,23.16,10,10,0,0,0,13.06-.93l65.6-65.6a10,10,0,0,0,2.24-10.72,40,40,0,1,1,22.63,22.62,10,10,0,0,0-10.72,2.24l-65.61,65.6a10,10,0,0,0-.93,13.07A128.87,128.87,0,0,1,386,256a130.59,130.59,0,0,1-4.22,33,10,10,0,0,0,6.12,11.87l49.23,18.74A10,10,0,0,0,447,318a20.13,20.13,0,0,1,12.66-4.5,20,20,0,0,1,17.3,30Z" transform="translate(0 0)"/><path class="cls-1" d="M214.66,164.4A10,10,0,0,0,201,160.74,109.75,109.75,0,0,0,151.4,222a10,10,0,0,0,6.41,12.6,9.85,9.85,0,0,0,3.1.5,10,10,0,0,0,9.5-6.91A89.86,89.86,0,0,1,211,178.06,10,10,0,0,0,214.66,164.4Z" transform="translate(0 0)"/><path class="cls-1" d="M156,245.67a10,10,0,0,0-10,10V256a10,10,0,0,0,20,0v-.33A10,10,0,0,0,156,245.67Z" transform="translate(0 0)"/><path class="cls-1" d="M354.18,277.42a10,10,0,0,0-12.6,6.42A89.83,89.83,0,0,1,301,333.94a10,10,0,1,0,10,17.32A109.8,109.8,0,0,0,360.6,290,10,10,0,0,0,354.18,277.42Z" transform="translate(0 0)"/><path class="cls-1" d="M356,246a10,10,0,0,0-10,10v.32a10,10,0,0,0,20,0V256A10,10,0,0,0,356,246Z" transform="translate(0 0)"/><path class="cls-1" d="M284.76,181.86a40,40,0,1,0,40,40A40,40,0,0,0,284.76,181.86Zm0,60a20,20,0,1,1,20-20A20,20,0,0,1,284.76,241.87Z" transform="translate(0 0)"/><path class="cls-1" d="M217.24,270.13a30,30,0,1,0,30,30A30,30,0,0,0,217.24,270.13Zm0,40a10,10,0,1,1,10-10A10,10,0,0,1,217.24,310.13Z" transform="translate(0 0)"/></svg>