<svg data-name="icoActivos" class="icoActivos" xmlns="http://www.w3.org/2000/svg" viewBox="0 0 514.02 502.02"><defs><style>.cls-1,.cls-2{fill:#01afaf;}.cls-1{stroke:#01afaf;stroke-miterlimit:10;stroke-width:2px;}</style></defs><title>ico_activos</title><g id="icoActivos"><g id="Capa_1-2" data-name="Capa 1-2"><circle class="cls-1" cx="434.2" cy="419.18" r="10"/><path class="cls-1" d="M178,232a35,35,0,1,0-35-35h0A35,35,0,0,0,178,232Zm0-50a15,15,0,1,1-15,15,15,15,0,0,1,15-15Z" transform="translate(-1.99 -7.99)"/><path class="cls-1" d="M317,197a35,35,0,1,0,35-35,35,35,0,0,0-35,35Zm50,0a15,15,0,1,1-15-15,15,15,0,0,1,15,15Z" transform="translate(-1.99 -7.99)"/><path class="cls-1" d="M195.19,108.93a10,10,0,0,0-19.34-5.1c0,.11-.06.22-.08.33s-.12.51-.16.77c-1.33,6.42-6.19,12.64-13.7,17.52-10.48,6.82-24.61,9.86-35.15,7.57a10,10,0,0,0-4.25,19.54,56.44,56.44,0,0,0,11.88,1.23,72,72,0,0,0,38.42-11.57c12-7.81,20-18.55,22.38-30.24Z" transform="translate(-1.99 -7.99)"/><path class="cls-1" d="M403.27,130c-10.53,2.29-24.66-.75-35.15-7.57-7.5-4.88-12.37-11.1-13.7-17.52a10,10,0,0,0-19.74,3.22c.05.26.1.52.16.78,2.42,11.69,10.37,22.43,22.38,30.24a72,72,0,0,0,38.43,11.57,56.35,56.35,0,0,0,11.87-1.23,10,10,0,1,0-2.84-19.8A9.57,9.57,0,0,0,403.27,130Z" transform="translate(-1.99 -7.99)"/><circle class="cls-2" cx="51.03" cy="245.99" r="10"/><path class="cls-1" d="M438.12,78.56C339.57-15.92,183.47-13.92,87.37,83A252.18,252.18,0,0,0,18.46,218.26,50,50,0,0,0,16.83,289l0,0h0C33.5,426.12,158.15,523.8,295.27,507.17a248.6,248.6,0,0,0,112.3-42.81A10,10,0,0,0,396.19,448c-104.4,72.43-247.75,46.5-320.18-57.9a229.91,229.91,0,0,1-36.9-87.69A50,50,0,0,0,59.29,304l105.5,60.09a115.67,115.67,0,0,0-19,31.12,10,10,0,0,0,18.36,7.94h0c0-.12.1-.23.14-.35C179.92,364.62,220.4,339,265,339s85.1,25.64,100.74,63.8a10,10,0,0,0,18.51-7.59h0C375.15,373,359.16,354,338,340.25A133.79,133.79,0,0,0,265,319a137.29,137.29,0,0,0-16.09.94l-150-85.46a49.91,49.91,0,0,0-57.69-28.62C70.57,82.26,194.55,5.86,318.14,35.2s200,153.29,170.68,276.89a230.12,230.12,0,0,1-32.54,74.67,10,10,0,0,0,16.43,11.41l.19-.29A248.77,248.77,0,0,0,515,259,251.89,251.89,0,0,0,438.12,78.56ZM67.88,228.31A30,30,0,0,1,81.4,244.64a10,10,0,0,0,4.51,5.44l8.3,4.73-5,8.69a10,10,0,1,0,17.38,9.9l5-8.69,17.38,9.9-5,8.69a10,10,0,0,0,17.11,10.35c.09-.15.18-.3.26-.45l5-8.69,17.38,9.9-5,8.69A10,10,0,1,0,176.1,313l5-8.69,39,22.19a128.27,128.27,0,0,0-40.54,22.95L66.11,284.85a9.94,9.94,0,0,0-7-1.11,30,30,0,1,1,8.75-55.43Z" transform="translate(-1.99 -7.99)"/></g></g></svg>