<svg class="icoTelegram" data-name="icoTelegram" xmlns="http://www.w3.org/2000/svg" viewBox="0 0 513.38 433.18"><defs><style>.cls-1{fill:#01afaf;}</style></defs><title>telegram2</title><path class="cls-1" d="M511.08,66a34.54,34.54,0,0,0-7-15.09C497.84,43.21,488.47,39,477.71,39a51.86,51.86,0,0,0-18.41,3.66L25.91,208.11c-23,8.77-26.1,21.94-25.9,29s4,20,27.5,27.51l.42.12,89.9,25.73,48.62,139c6.62,18.95,21.5,30.73,38.83,30.73,10.93,0,21.67-4.58,31.08-13.24L292,395.8l80.66,64.95,0,0,.77.61a1.84,1.84,0,0,0,.22.17c9,6.95,18.75,10.63,28.3,10.63h0c18.67,0,33.54-13.82,37.88-35.22l2.64-13c.12-.43.24-.88.33-1.33l4.79-24,1.72-8.47h0l3.41-17a15,15,0,1,0-29.42-5.88l-5.2,26L410.41,431c-.68,3.36-2.86,11.17-8.48,11.17-2.77,0-6.25-1.52-9.82-4.26l-91.39-73.59,0,0L246.3,320.51,402.47,154.56a15,15,0,0,0-17.74-23.63L127.86,262.15,36.74,236.08,470,70.69A22,22,0,0,1,477.71,69c.92,0,2.56.11,3.16.86.8,1,1.81,4.28.56,10.51L448.08,245h.33c-.42,2.05-.83,4.09-1.24,6.14a15,15,0,0,0,11.74,17.67,15.21,15.21,0,0,0,3,.3,15,15,0,0,0,14.69-12q4-19.73,7.94-39.43c9.28-46.13,18.88-93.82,28.55-140.75A15,15,0,0,0,511.08,66ZM268.34,376.78,216,424.93c-.72.66-1.45,1.25-2.17,1.8l19.32-78.25Zm53-179.78-108,114.75a14.91,14.91,0,0,0-3.64,6.68l-20.83,84.36-41-117.19Z" transform="translate(0 -39)"/><path class="cls-1" d="M453.93,293.48a15,15,0,0,0-17.68,11.73c-.14.68-.24,1.33-.32,2l0,.14A15,15,0,0,0,447.63,325a15.24,15.24,0,0,0,3,.3,15,15,0,0,0,14.69-12c.13-.67.24-1.33.32-2l0-.14A15,15,0,0,0,453.93,293.48Z" transform="translate(0 -39)"/></svg>