<svg xmlns="http://www.w3.org/2000/svg" viewBox="0 0 514 502.02"><defs><style>.cls-1,.cls-2{fill:#01afaf;}.cls-1{stroke:#01afaf;stroke-miterlimit:10;stroke-width:2px;}</style></defs><title>Recurso 4</title><g id="icoActivos" data-name="icoActivos" class="icoActivos"><g id="Capa_1-2" data-name="Capa 1"><circle class="cls-1" cx="434.18" cy="419.18" r="10"/><path class="cls-1" d="M176,224a35,35,0,1,0-35-35h0A35,35,0,0,0,176,224Zm0-50a15,15,0,1,1-15,15,15,15,0,0,1,15-15Z"/><path class="cls-1" d="M315,189a35,35,0,1,0,35-35,35,35,0,0,0-35,35Zm50,0a15,15,0,1,1-15-15,15,15,0,0,1,15,15Z"/><path class="cls-1" d="M193.18,100.94a10,10,0,1,0-19.42-4.77c-.06.25-.12.51-.16.77-1.33,6.42-6.19,12.64-13.7,17.52-10.48,6.82-24.61,9.86-35.15,7.57a10,10,0,0,0-4.25,19.54,55.86,55.86,0,0,0,11.88,1.23,72,72,0,0,0,38.42-11.57c12-7.81,20-18.55,22.38-30.24Z"/><path class="cls-1" d="M401.26,122c-10.53,2.29-24.66-.75-35.15-7.57-7.5-4.88-12.37-11.1-13.7-17.52a10,10,0,0,0-19.74,3.22c.05.26.1.52.16.78,2.42,11.69,10.37,22.43,22.38,30.24a72.05,72.05,0,0,0,38.43,11.57,55.7,55.7,0,0,0,11.87-1.23,10,10,0,1,0-2.84-19.8A9.57,9.57,0,0,0,401.26,122Z"/><circle class="cls-2" cx="51.01" cy="245.99" r="10"/><path class="cls-1" d="M436.11,70.57C337.56-23.91,181.46-21.91,85.36,75.05A252.15,252.15,0,0,0,16.45,210.27,50,50,0,0,0,14.86,281l0,0c16.63,137.13,141.28,234.81,278.4,218.18a248.66,248.66,0,0,0,112.3-42.81A10,10,0,0,0,394.18,440C289.78,512.43,146.43,486.5,74,382.1a230.07,230.07,0,0,1-36.9-87.69A50,50,0,0,0,57.28,296l105.5,60.09a115.67,115.67,0,0,0-19,31.12,10,10,0,0,0,18.36,7.94c.05-.12.1-.23.14-.35C177.91,356.63,218.39,331,263,331s85.1,25.64,100.74,63.8a10,10,0,0,0,18.51-7.59C373.14,365,357.15,346,336,332.26A133.79,133.79,0,0,0,263,311a137.29,137.29,0,0,0-16.09.94l-150-85.46a49.91,49.91,0,0,0-57.69-28.62C68.56,74.27,192.54-2.13,316.13,27.21A230,230,0,0,1,454.27,378.77a10,10,0,0,0,16.43,11.41l.19-.29A248.77,248.77,0,0,0,513,251,251.91,251.91,0,0,0,436.11,70.57ZM65.87,220.32a30,30,0,0,1,13.52,16.33,10,10,0,0,0,4.51,5.44l8.3,4.73-5,8.69a10,10,0,1,0,17.38,9.9l5-8.69,17.38,9.9-5,8.69a10,10,0,0,0,17.11,10.35c.09-.15.18-.3.26-.45l5-8.69,17.38,9.9-5,8.69a10,10,0,1,0,17.38,9.9l5-8.69,39,22.19a128.27,128.27,0,0,0-40.54,22.95L64.1,276.86a9.94,9.94,0,0,0-7-1.11,30,30,0,1,1,8.75-55.43Z"/></g></g></svg>