<svg class="icoInformacionII" data-name="icoInformacionII" xmlns="http://www.w3.org/2000/svg" viewBox="0 0 260.93 272.88"><defs><style>.cls-6{fill:#929292;}</style></defs><title>ico_informacion2</title><path class="cls-6" d="M286.67,101c-71.94,0-130.47,58.51-130.47,130.43A130,130,0,0,0,181,307.92l-18.58,51.15a11,11,0,0,0,10.34,14.76,10.85,10.85,0,0,0,3.48-.57l62-20.69a128.41,128.41,0,0,0,48.12,9.31h.38c71.86-.07,130.38-58.6,130.45-130.46S358.61,101,286.67,101ZM202.11,314.19a19.49,19.49,0,0,0-2.68-18.33,108.46,108.46,0,1,1,87.21,44h-.1a107.05,107.05,0,0,1-40.85-8,19.7,19.7,0,0,0-13.62-.46l-41.21,13.77Z" transform="translate(-156.2 -100.95)"/><path class="cls-6" d="M286.67,256.22a18.83,18.83,0,1,0-18.83-18.83A18.82,18.82,0,0,0,286.67,256.22Z" transform="translate(-156.2 -100.95)"/><path class="cls-6" d="M339.84,256.22A18.83,18.83,0,1,0,321,237.39,18.83,18.83,0,0,0,339.84,256.22Z" transform="translate(-156.2 -100.95)"/><path class="cls-6" d="M233.49,256.22a18.83,18.83,0,1,0-18.82-18.83A18.83,18.83,0,0,0,233.49,256.22Z" transform="translate(-156.2 -100.95)"/></svg>