<svg class="icoConfirmados" xmlns="http://www.w3.org/2000/svg" viewBox="0 0 490 490.02"><defs><style>.cls-1{fill:#01afaf;}</style></defs><title>ico_confirmados2</title><path class="cls-1" d="M489.91,242.67a35.88,35.88,0,0,0-9.64-22.13v-.09a36,36,0,0,0-26.17-11.34,35.31,35.31,0,0,0-15.58,3.56,107.23,107.23,0,0,1-34.75,10.21,158.62,158.62,0,0,0-6.73-28.77,7.18,7.18,0,1,0-13.75,4.15c.05.14.09.28.14.41a146.31,146.31,0,0,1-17.57,128.14,35.89,35.89,0,0,0-49.79,45.66,145.74,145.74,0,0,1-49.55,16.88V360.68a21.53,21.53,0,0,0-43.06,0v28.79q-6.27-.92-12.49-2.32a7.08,7.08,0,0,0-3.12,13.81c5,1.13,10,2,15,2.73v.12a98.93,98.93,0,0,1-10,34.2,35.9,35.9,0,0,0,29.72,51.95c.8.05,1.59.08,2.38.08a35.46,35.46,0,0,0,24.51-9.72,36,36,0,0,0,11.34-26.17,35.47,35.47,0,0,0-3.55-15.58,106.56,106.56,0,0,1-10.22-34.77,160.53,160.53,0,0,0,57.13-19.41A35.86,35.86,0,0,0,377,336a158.5,158.5,0,0,0,26.79-68.86,97.79,97.79,0,0,1,34.17,10A35.61,35.61,0,0,0,454.1,281c.82,0,1.63,0,2.45-.08A35.87,35.87,0,0,0,489.91,242.67ZM259.73,469.81a21.53,21.53,0,0,1-34-25.37,114.09,114.09,0,0,0,12.06-51.11V360.68a7.18,7.18,0,0,1,14.36,0v32.64a117.62,117.62,0,0,0,12.23,51.45,21.57,21.57,0,0,1-4.68,25Zm111-111.25A21.54,21.54,0,1,1,349.15,337a21.56,21.56,0,0,1,21.55,21.54ZM475.6,246.43a21.55,21.55,0,0,1-31.17,17.81,112.05,112.05,0,0,0-39.32-11.45c.12-2.59.19-5.18.19-7.79s-.07-5.23-.2-7.83a121.35,121.35,0,0,0,39.68-11.58,21.53,21.53,0,0,1,30.79,20.84Z" transform="translate(0 0)"/><path class="cls-1" d="M264.14,192.66a38.28,38.28,0,1,0,38.28-38.28A38.28,38.28,0,0,0,264.14,192.66Zm62.2,0a23.93,23.93,0,1,1-23.93-23.93h0A24,24,0,0,1,326.34,192.66Z" transform="translate(0 0)"/><path class="cls-1" d="M218.48,304.82a28.24,28.24,0,0,0-28.24-28.24h0a28.24,28.24,0,1,0,28.25,28.24Zm-42.13,0a13.9,13.9,0,0,1,27.79,0h0a13.88,13.88,0,0,1-27.76,0Z" transform="translate(0 0)"/><path class="cls-1" d="M160.63,364c-1.57-1.09-3.1-2.21-4.63-3.35h0a146.3,146.3,0,0,1-55.38-94.13h28.68a21.53,21.53,0,1,0,0-43.06h-28.7a145.08,145.08,0,0,1,14.09-44.39c.14-.25.27-.49.38-.74a146.31,146.31,0,0,1,62.26-62.73c.16-.08.32-.15.47-.24a145.41,145.41,0,0,1,45.63-14.73v28.68a21.53,21.53,0,1,0,43.06,0v-28.7A146.35,146.35,0,0,1,371,171.37a7.18,7.18,0,0,0,12.39-7.26,158.73,158.73,0,0,0-11.9-17.52,85.2,85.2,0,0,1,28.4-16.07,32,32,0,1,0-32.67-53.05,31.48,31.48,0,0,0-7.59,12.08,90.29,90.29,0,0,1-16.28,28.94,160.14,160.14,0,0,0-76.29-32.26,98.93,98.93,0,0,1,10-34.2,35.89,35.89,0,1,0-64.4-.56,106.63,106.63,0,0,1,10.22,34.74,159.45,159.45,0,0,0-47,14.12,53.84,53.84,0,0,0-38-15.58,7.18,7.18,0,0,0-.54,14.35,4.86,4.86,0,0,0,.54,0,39.53,39.53,0,0,1,24.52,8.48,160.74,160.74,0,0,0-55.55,56,39.75,39.75,0,0,1,6.28-55.86l.39-.31a7.18,7.18,0,0,0-8.81-11.33,54.05,54.05,0,0,0-5,81A159.44,159.44,0,0,0,86.2,222.83a106.63,106.63,0,0,1-34.74-10.22,35.61,35.61,0,0,0-15.58-3.55,35.89,35.89,0,0,0-2.45,71.7c.81.05,1.62.08,2.43.08A35.88,35.88,0,0,0,52,277.06a98.93,98.93,0,0,1,34.2-10,160.15,160.15,0,0,0,32.78,77l-8.16,8.16a81.14,81.14,0,0,1-31.77,19.65,30.91,30.91,0,0,0-13.5,49.73,30.61,30.61,0,0,0,22.24,10.51h1A30.94,30.94,0,0,0,118,411.42a84.21,84.21,0,0,1,19.82-32.27L146,371s0,0,.1-.11c2.13,1.62,4.3,3.22,6.51,4.75A7.07,7.07,0,1,0,160.63,364ZM373.25,94.25h0a17.69,17.69,0,1,1,22.26,22.62,99.45,99.45,0,0,0-33.23,18.79q-3.81-4.08-7.89-7.88A104.55,104.55,0,0,0,373.25,94.25Zm-143-74.06A21.33,21.33,0,0,1,245,14.36a13.48,13.48,0,0,1,1.44.05,21.55,21.55,0,0,1,17.81,31.16,114.09,114.09,0,0,0-12.06,51.11v32.64a7.18,7.18,0,0,1-14.36,0V96.68A117.62,117.62,0,0,0,225.6,45.23a21.57,21.57,0,0,1,4.68-25ZM45.56,264.24a21.54,21.54,0,1,1-.37-38.68,117.62,117.62,0,0,0,51.45,12.23h32.64a7.18,7.18,0,0,1,0,14.36H96.67A114.05,114.05,0,0,0,45.56,264.24ZM127.64,369a98.7,98.7,0,0,0-23.23,37.7,16.54,16.54,0,0,1-28.08,5.43,16.75,16.75,0,0,1,0-21.77,16.57,16.57,0,0,1,7.29-4.86A95.42,95.42,0,0,0,121,362.36l7.1-7.1q3.33,3.3,6.83,6.44Z" transform="translate(0 0)"/><path class="cls-1" d="M178.71,377.46a7.08,7.08,0,1,0,7.93,1.86A7.13,7.13,0,0,0,178.71,377.46Z" transform="translate(0 0)"/></svg>