<svg class="icoInformacion" data-name="icoInformacion" xmlns="http://www.w3.org/2000/svg" viewBox="0 0 302.82 291.75"><defs><style>.cls-3{fill:#939393;}.cls-4{fill:#ff3867;}</style></defs><title>ico_informacion</title><path class="cls-3" d="M404.84,191.78c-5.57.37-11.08-.68-16.6-1.16A109.5,109.5,0,0,1,245.31,332.79a18.73,18.73,0,0,0-12.93-.43l-43.17,14.43,12-32.94a18.47,18.47,0,0,0-2.54-17.39,109.43,109.43,0,0,1,158-149.13c.28-6.91,4.52-14.28,10.79-17A128.83,128.83,0,0,0,286.67,102C215.28,102,157.2,160,157.2,231.38a129,129,0,0,0,24.91,76.38l-18.76,51.66a10,10,0,0,0,12.57,12.89l62.29-20.81a127.35,127.35,0,0,0,48.09,9.38h.38c71.3-.07,129.38-58.15,129.45-129.45h0a128.75,128.75,0,0,0-6.41-40.24A43.65,43.65,0,0,1,404.84,191.78Z" transform="translate(-156.2 -82.08)"/><path class="cls-3" d="M406.13,231.42h0Z" transform="translate(-156.2 -82.08)"/><path class="cls-3" d="M395.13,231.4A108.76,108.76,0,0,1,286.64,339.88h-.1a107.05,107.05,0,0,1-40.85-8,19.7,19.7,0,0,0-13.62-.46l-41.21,13.77,11.25-31a19.49,19.49,0,0,0-2.68-18.33A108.43,108.43,0,0,1,356.68,148.64a17.89,17.89,0,0,1,.09-2.53A110.44,110.44,0,0,0,197.82,297.05a17.5,17.5,0,0,1,2.41,16.46l-12.66,34.88,45.13-15.08a17.69,17.69,0,0,1,12.23.41,109,109,0,0,0,41.61,8.16h.1A110.48,110.48,0,0,0,389.37,190.72l-2.25-.2A107.84,107.84,0,0,1,395.13,231.4Z" transform="translate(-156.2 -82.08)"/><path class="cls-3" d="M408.73,191.35a128,128,0,0,1,6.4,40.08c-.07,70.75-57.7,128.38-128.45,128.45h-.38a126.29,126.29,0,0,1-47.71-9.31l-.34-.14L175.6,371.37a9.17,9.17,0,0,1-9.3-2.26,9.06,9.06,0,0,1-2-9.35l18.94-52.16-.31-.43a128,128,0,0,1-24.72-75.79C158.2,160.56,215.83,103,286.67,103a127.85,127.85,0,0,1,79.79,27.86,13.74,13.74,0,0,1,2.08-.9,129.88,129.88,0,0,0-81.87-29c-71.94,0-130.47,58.51-130.47,130.43A130,130,0,0,0,181,307.92l-18.58,51.15a11,11,0,0,0,10.34,14.76,10.85,10.85,0,0,0,3.48-.57l62-20.69a128.41,128.41,0,0,0,48.12,9.31h.38c71.86-.07,130.38-58.6,130.45-130.46A130,130,0,0,0,410.71,191C410.06,191.13,409.39,191.24,408.73,191.35Z" transform="translate(-156.2 -82.08)"/><polygon class="cls-3" points="249.94 150.33 249.93 148.33 249.94 148.33 249.94 150.33"/><path class="cls-3" d="M286.67,256.22a18.83,18.83,0,1,0-18.83-18.83A18.82,18.82,0,0,0,286.67,256.22Z" transform="translate(-156.2 -82.08)"/><path class="cls-3" d="M339.84,256.22A18.83,18.83,0,1,0,321,237.39,18.83,18.83,0,0,0,339.84,256.22Z" transform="translate(-156.2 -82.08)"/><path class="cls-3" d="M233.49,256.22a18.83,18.83,0,1,0-18.82-18.83A18.83,18.83,0,0,0,233.49,256.22Z" transform="translate(-156.2 -82.08)"/><path class="cls-4" d="M393.29,82.08A65.74,65.74,0,1,0,459,147.82,65.73,65.73,0,0,0,393.29,82.08Zm20.35,97.22H381.88v-10h9V136.81l.17-7.1-.17-.18L385.25,133l-5.59,3.28-1.51-11.35,18.63-12.16h8v56.52h8.88Z" transform="translate(-156.2 -82.08)"/></svg>