<svg id="icoAltas" data-name="icoAltas" xmlns="http://www.w3.org/2000/svg" viewBox="0 0 518 518"><defs><style>.cls-1{fill:#01afaf;stroke:#01afaf;stroke-miterlimit:10;stroke-width:6px;}</style></defs><title>ico_altas</title><path class="cls-1" d="M437,75A256,256,0,0,0,111.13,44.92,10,10,0,0,0,122.46,61.4,234.75,234.75,0,0,1,256,20c130.13,0,236,105.87,236,236S386.13,492,256,492,20,386.13,20,256A234.67,234.67,0,0,1,61.4,122.47a10,10,0,0,0-16.48-11.33A256,256,0,0,0,437,437a256,256,0,0,0,0-362Z" transform="translate(3 3)"/><path class="cls-1" d="M82.05,92.05A10,10,0,1,0,75,75h0a10,10,0,0,0,7.07,17.07Z" transform="translate(3 3)"/><path class="cls-1" d="M175.66,325.29a10,10,0,0,0-19.32,5.17,103.18,103.18,0,0,0,199.32,0,10,10,0,0,0-19.32-5.17,83.18,83.18,0,0,1-160.68,0Z" transform="translate(3 3)"/><path class="cls-1" d="M310.53,252.07a26.37,26.37,0,0,1,50.94,0,10,10,0,0,0,9.66,7.41,10.13,10.13,0,0,0,2.59-.34,10,10,0,0,0,7.07-12.25,46.37,46.37,0,0,0-89.58,0,10,10,0,0,0,19.32,5.18Z" transform="translate(3 3)"/><path class="cls-1" d="M176,212.52a46.43,46.43,0,0,0-44.79,34.37,10,10,0,0,0,19.32,5.18,26.37,26.37,0,0,1,50.94,0,10,10,0,0,0,19.32-5.18A46.44,46.44,0,0,0,176,212.52Z" transform="translate(3 3)"/></svg>