<svg id="icoConfirmados" data-name="icoConfirmados" xmlns="http://www.w3.org/2000/svg" viewBox="0 0 490 489.99"><defs><style>.cls-1{fill:#01afaf;}</style></defs><title>ico_confirmados2</title><path class="cls-1" d="M491.28,231.45a36,36,0,0,0-26.17-11.34,35.4,35.4,0,0,0-15.58,3.56,107.06,107.06,0,0,1-34.75,10.21,158.81,158.81,0,0,0-6.73-28.77,7.18,7.18,0,1,0-13.61,4.56,146.31,146.31,0,0,1-17.57,128.14,35.89,35.89,0,0,0-49.79,45.66,145.81,145.81,0,0,1-49.55,16.88V371.68a21.53,21.53,0,1,0-43.06,0v28.68a144.51,144.51,0,0,1-25.1-6,7.18,7.18,0,0,0-4.58,13.6,158.6,158.6,0,0,0,29.12,6.83,98.89,98.89,0,0,1-10,34.2,35.9,35.9,0,0,0,29.72,51.95c.8.05,1.59.08,2.38.08a35.48,35.48,0,0,0,24.51-9.72,36,36,0,0,0,11.34-26.17,35.48,35.48,0,0,0-3.55-15.58,106.6,106.6,0,0,1-10.22-34.77,160.46,160.46,0,0,0,57.13-19.41A35.86,35.86,0,0,0,388,347a158.44,158.44,0,0,0,26.79-68.86,97.84,97.84,0,0,1,34.17,10,35.68,35.68,0,0,0,16.14,3.84c.82,0,1.63,0,2.45-.08a35.88,35.88,0,0,0,23.72-60.36ZM270.73,480.81a21.53,21.53,0,0,1-34-25.37,114,114,0,0,0,12.06-51.11V371.68a7.18,7.18,0,0,1,14.36,0v32.64a117.7,117.7,0,0,0,12.23,51.45,21.56,21.56,0,0,1-4.68,25Zm89.44-89.71a21.54,21.54,0,1,1,21.53-21.54A21.56,21.56,0,0,1,360.17,391.1ZM486.6,257.43a21.55,21.55,0,0,1-31.17,17.81,112.08,112.08,0,0,0-39.32-11.45c.12-2.59.19-5.18.19-7.79s-.07-5.23-.2-7.83a121.34,121.34,0,0,0,39.68-11.58,21.55,21.55,0,0,1,25,4.68,21.42,21.42,0,0,1,5.79,16.16Z" transform="translate(-11 -11)"/><path class="cls-1" d="M182.73,382.25a146.31,146.31,0,0,1-71.09-104.72h28.68a21.53,21.53,0,1,0,0-43.06H111.64a145.13,145.13,0,0,1,14.09-44.39c.14-.25.27-.49.38-.74a146.31,146.31,0,0,1,62.26-62.73c.16-.08.32-.15.47-.24a145.21,145.21,0,0,1,45.63-14.73v28.68a21.53,21.53,0,1,0,43.06,0V111.64A146.35,146.35,0,0,1,382,182.37a7.19,7.19,0,0,0,6.2,3.55,7.19,7.19,0,0,0,6.19-10.81,159.07,159.07,0,0,0-11.9-17.52,85.19,85.19,0,0,1,28.4-16.07,32,32,0,1,0-32.67-53.05,31.47,31.47,0,0,0-7.59,12.08,90.44,90.44,0,0,1-16.28,28.94,160.15,160.15,0,0,0-76.29-32.26,98.89,98.89,0,0,1,10-34.2,35.9,35.9,0,0,0-29.72-51.95,35.58,35.58,0,0,0-26.89,9.64,36,36,0,0,0-11.34,26.17,35.62,35.62,0,0,0,3.55,15.58,106.5,106.5,0,0,1,10.22,34.74,159.53,159.53,0,0,0-47,14.12,53.87,53.87,0,0,0-38-15.58,7.18,7.18,0,1,0,0,14.35,39.52,39.52,0,0,1,24.52,8.48,160.69,160.69,0,0,0-55.55,56,39.75,39.75,0,0,1,6.67-56.17,7.18,7.18,0,0,0-8.81-11.33,54.05,54.05,0,0,0-5,81,159.48,159.48,0,0,0-13.51,45.75,106.5,106.5,0,0,1-34.74-10.22,35.62,35.62,0,0,0-15.58-3.55,36,36,0,0,0-26.17,11.34,35.89,35.89,0,0,0,23.72,60.36c.81.05,1.62.08,2.43.08A35.88,35.88,0,0,0,63,288.06a98.89,98.89,0,0,1,34.2-10,160.11,160.11,0,0,0,32.78,77l-8.16,8.16a81.06,81.06,0,0,1-31.77,19.65A30.91,30.91,0,0,0,76.55,432.6a30.64,30.64,0,0,0,22.24,10.51l1,0A30.93,30.93,0,0,0,129,422.42a84.27,84.27,0,0,1,19.82-32.27l8.14-8.14a160.25,160.25,0,0,0,18.58,12.65,7.18,7.18,0,0,0,7.22-12.41Zm201.48-277a17.67,17.67,0,0,1,30-5.78,17.66,17.66,0,0,1-7.74,28.4,99.43,99.43,0,0,0-33.23,18.79q-3.81-4.08-7.89-7.88a104.36,104.36,0,0,0,18.9-33.53ZM241.27,31.19A21.32,21.32,0,0,1,256,25.36c.48,0,1,0,1.44.05a21.54,21.54,0,0,1,17.81,31.16,114,114,0,0,0-12.06,51.11v32.64a7.18,7.18,0,0,1-14.36,0V107.68a117.7,117.7,0,0,0-12.23-51.45,21.56,21.56,0,0,1,4.68-25ZM56.56,275.24a21.53,21.53,0,0,1-25.37-34,21.56,21.56,0,0,1,25-4.68,117.7,117.7,0,0,0,51.45,12.23h32.64a7.18,7.18,0,0,1,0,14.36H107.67A114,114,0,0,0,56.56,275.24ZM138.64,380a98.67,98.67,0,0,0-23.23,37.7,16.55,16.55,0,0,1-28.08,5.43,16.75,16.75,0,0,1,0-21.77,16.54,16.54,0,0,1,7.29-4.86A95.36,95.36,0,0,0,132,373.36l7.4-7.4q3.21,3.42,6.63,6.64Z" transform="translate(-11 -11)"/><path class="cls-1" d="M275.14,203.66a38.28,38.28,0,1,0,38.28-38.28A38.32,38.32,0,0,0,275.14,203.66Zm62.2,0a23.93,23.93,0,1,1-23.92-23.93A23.95,23.95,0,0,1,337.34,203.66Z" transform="translate(-11 -11)"/><path class="cls-1" d="M173,315.82a28.24,28.24,0,1,0,28.23-28.24A28.27,28.27,0,0,0,173,315.82Zm42.11,0a13.88,13.88,0,1,1-13.88-13.88A13.89,13.89,0,0,1,215.14,315.82Z" transform="translate(-11 -11)"/></svg>