<svg class="icoCookies" data-name="icoCookies" xmlns="http://www.w3.org/2000/svg" viewBox="0 0 475.12 475.12"><defs><style>.cls-1{fill:#01afaf;}</style></defs><title>ico_cookies2</title><path class="cls-1" d="M381.8,264.69a9.16,9.16,0,1,1-9.16-9.16A9.16,9.16,0,0,1,381.8,264.69Z" transform="translate(-25.13 -27.13)"/><path class="cls-1" d="M372.64,276.85a12.16,12.16,0,1,1,12.16-12.16A12.17,12.17,0,0,1,372.64,276.85Zm0-18.32a6.16,6.16,0,1,0,6.16,6.16A6.16,6.16,0,0,0,372.64,258.53Z" transform="translate(-25.13 -27.13)"/><path class="cls-1" d="M290.18,209.72a9.17,9.17,0,1,1-9.16-9.17A9.16,9.16,0,0,1,290.18,209.72Z" transform="translate(-25.13 -27.13)"/><path class="cls-1" d="M281,221.88a12.17,12.17,0,1,1,12.16-12.16A12.18,12.18,0,0,1,281,221.88Zm0-18.33a6.17,6.17,0,1,0,6.16,6.17A6.18,6.18,0,0,0,281,203.55Z" transform="translate(-25.13 -27.13)"/><path class="cls-1" d="M271.85,402.13a9.16,9.16,0,1,1-9.16-9.16A9.16,9.16,0,0,1,271.85,402.13Z" transform="translate(-25.13 -27.13)"/><path class="cls-1" d="M262.69,414.29a12.16,12.16,0,1,1,12.16-12.16A12.17,12.17,0,0,1,262.69,414.29Zm0-18.32a6.16,6.16,0,1,0,6.16,6.16A6.16,6.16,0,0,0,262.69,396Z" transform="translate(-25.13 -27.13)"/><path class="cls-1" d="M134.42,237.2a9.17,9.17,0,1,1-9.17-9.16A9.18,9.18,0,0,1,134.42,237.2Z" transform="translate(-25.13 -27.13)"/><path class="cls-1" d="M125.25,249.37a12.17,12.17,0,1,1,12.17-12.17A12.18,12.18,0,0,1,125.25,249.37Zm0-18.33a6.17,6.17,0,1,0,6.17,6.16A6.18,6.18,0,0,0,125.25,231Z" transform="translate(-25.13 -27.13)"/><path class="cls-1" d="M161.9,393a36.65,36.65,0,1,0-36.65-36.65A36.65,36.65,0,0,0,161.9,393Zm0-55a18.33,18.33,0,1,1-18.32,18.33A18.33,18.33,0,0,1,161.9,338Z" transform="translate(-25.13 -27.13)"/><path class="cls-1" d="M161.9,396h0a39.65,39.65,0,1,1,39.65-39.65A39.78,39.78,0,0,1,161.9,396Zm0-73.3a33.65,33.65,0,1,0,0,67.3h0a33.65,33.65,0,1,0,0-67.3Zm0,55a21.33,21.33,0,1,1,21.33-21.32A21.35,21.35,0,0,1,161.9,377.64Zm0-36.65a15.33,15.33,0,1,0,15.33,15.33A15.34,15.34,0,0,0,161.9,341Z" transform="translate(-25.13 -27.13)"/><path class="cls-1" d="M244.37,145.58a36.65,36.65,0,1,0-36.65,36.65A36.65,36.65,0,0,0,244.37,145.58Zm-55,0a18.33,18.33,0,1,1,18.33,18.32A18.33,18.33,0,0,1,189.39,145.58Z" transform="translate(-25.13 -27.13)"/><path class="cls-1" d="M207.72,185.23a39.65,39.65,0,1,1,39.65-39.65h0A39.77,39.77,0,0,1,207.72,185.23Zm0-73.3a33.65,33.65,0,1,0,33.65,33.65A33.69,33.69,0,0,0,207.72,111.93Zm0,55A21.33,21.33,0,1,1,229,145.58,21.35,21.35,0,0,1,207.72,166.9Zm0-36.65A15.33,15.33,0,1,0,223,145.58,15.35,15.35,0,0,0,207.72,130.25Z" transform="translate(-25.13 -27.13)"/><path class="cls-1" d="M308.5,347.15a36.65,36.65,0,1,0,36.65-36.65A36.65,36.65,0,0,0,308.5,347.15Zm55,0a18.33,18.33,0,1,1-18.33-18.32A18.33,18.33,0,0,1,363.48,347.15Z" transform="translate(-25.13 -27.13)"/><path class="cls-1" d="M345.15,386.8a39.69,39.69,0,0,1-39.65-39.65h0a39.65,39.65,0,1,1,39.65,39.65ZM311.5,347.15a33.65,33.65,0,1,0,33.65-33.65,33.69,33.69,0,0,0-33.65,33.65Zm33.65,21.33a21.33,21.33,0,1,1,21.33-21.33A21.35,21.35,0,0,1,345.15,368.48Zm0-36.65a15.33,15.33,0,1,0,15.33,15.32A15.33,15.33,0,0,0,345.15,331.83Z" transform="translate(-25.13 -27.13)"/><path class="cls-1" d="M244.37,310.5A27.49,27.49,0,1,0,216.88,283a27.48,27.48,0,0,0,27.49,27.48Zm0-36.65A9.17,9.17,0,1,1,235.2,283,9.17,9.17,0,0,1,244.37,273.85Z" transform="translate(-25.13 -27.13)"/><path class="cls-1" d="M244.37,313.5A30.49,30.49,0,1,1,274.85,283,30.52,30.52,0,0,1,244.37,313.5Zm0-55A24.49,24.49,0,1,0,268.85,283,24.51,24.51,0,0,0,244.37,258.53Zm0,36.65A12.17,12.17,0,1,1,256.53,283,12.18,12.18,0,0,1,244.37,295.18Zm0-18.33a6.17,6.17,0,1,0,6.16,6.17A6.18,6.18,0,0,0,244.37,276.85Z" transform="translate(-25.13 -27.13)"/><path class="cls-1" d="M271.85,490.09a9.16,9.16,0,1,1-9.16-9.16A9.16,9.16,0,0,1,271.85,490.09Z" transform="translate(-25.13 -27.13)"/><path class="cls-1" d="M262.69,502.25a12.16,12.16,0,1,1,12.16-12.16A12.17,12.17,0,0,1,262.69,502.25Zm0-18.32a6.16,6.16,0,1,0,6.16,6.16A6.16,6.16,0,0,0,262.69,483.93Z" transform="translate(-25.13 -27.13)"/><path class="cls-1" d="M481.12,222.94c-5.94,3-15.52,5.1-23.27,5.1-18.2,0-36.14-10.52-43.62-25.59a9.17,9.17,0,0,0-10.83-4.7,58.55,58.55,0,0,1-17,2.8A59.63,59.63,0,0,1,326.83,141a58.6,58.6,0,0,1,2.8-17,9.16,9.16,0,0,0-4.7-10.83c-15.07-7.47-25.59-25.41-25.59-43.62,0-7.75,2.1-17.33,5.1-23.27a9.16,9.16,0,0,0-4-12.31,9.35,9.35,0,0,0-2.74-.88,227.51,227.51,0,0,0-35-2.94c-126.44,0-234.56,107.94-234.56,234.56,0,110,82.46,209,191.76,230.4a9.16,9.16,0,0,0,4-17.88l-.5-.1c-100.9-19.73-176.95-111-176.95-212.42,0-117.21,99-216.23,216.23-216.23a190.45,190.45,0,0,1,21.08,1.23A77.83,77.83,0,0,0,281,69.53c0,22.24,11.72,44.3,29.22,56.21A70.57,70.57,0,0,0,308.5,141a78,78,0,0,0,77.88,77.88,70,70,0,0,0,15.26-1.74c11.91,17.5,34,29.23,56.21,29.23a78.73,78.73,0,0,0,19.84-2.75,190.14,190.14,0,0,1,1.24,21.07c0,101.37-76.05,192.69-177,212.42a9.16,9.16,0,0,0,3.52,18c109.3-21.38,191.76-120.45,191.76-230.4a226.37,226.37,0,0,0-2.94-35,9.16,9.16,0,0,0-10.45-7.66A9.06,9.06,0,0,0,481.12,222.94Z" transform="translate(-25.13 -27.13)"/><path class="cls-1" d="M221.9,498.32a12.12,12.12,0,0,1-2.66-.3c-110.63-21.65-194.11-122-194.11-233.33a228.05,228.05,0,0,1,19.12-91.26A246.82,246.82,0,0,1,171.51,46.22a228.23,228.23,0,0,1,91.18-19.09,231.27,231.27,0,0,1,35.46,3,12.16,12.16,0,0,1,9,17.5c-2.77,5.48-4.78,14.7-4.78,21.92,0,17.12,9.84,34,23.92,40.94a12.13,12.13,0,0,1,6.25,14.37,55.76,55.76,0,0,0-2.68,16.21,56.7,56.7,0,0,0,56.56,56.5,55.27,55.27,0,0,0,16.09-2.66,12.17,12.17,0,0,1,14.44,6.23c7,14.08,23.82,23.92,40.93,23.92,7.22,0,16.44-2,21.92-4.78h0a11.85,11.85,0,0,1,3.63-1.16,12.16,12.16,0,0,1,13.87,10.16,229.38,229.38,0,0,1,3,35.41c0,111.39-83.48,211.7-194.18,233.37a12.16,12.16,0,0,1-4.76-23.85c99.58-19.48,174.62-109.54,174.62-209.5,0-5.76-.31-11.57-.86-17.33a81.54,81.54,0,0,1-17.19,2c-22.36,0-44.71-11.28-57.55-28.89a73.31,73.31,0,0,1-13.94,1.4A81.11,81.11,0,0,1,305.5,141a73.41,73.41,0,0,1,1.4-14C289.29,114.21,278,91.86,278,69.53a81.41,81.41,0,0,1,2-17.21c-5.76-.56-11.57-.85-17.34-.86-115.57,0-213.22,97.65-213.22,213.23,0,100,75,190,174.53,209.48l.58.11a12.17,12.17,0,0,1-2.67,24ZM262.67,33.13c-125.5,0-231.54,106-231.54,231.56,0,108.55,81.4,206.34,189.34,227.46a6.2,6.2,0,0,0,7.45-4.65,6.17,6.17,0,0,0-4.67-7.36,3,3,0,0,0-.32-.06c-102.36-20-179.47-112.61-179.47-215.39,0-118.84,100.39-219.23,219.23-219.23a194,194,0,0,1,21.42,1.25l3.47.4-.92,3.37A75.5,75.5,0,0,0,284,69.56c0,21.07,11,42.16,27.91,53.7l1.69,1.15-.45,2A67.06,67.06,0,0,0,311.5,141a75.09,75.09,0,0,0,74.89,74.87A67,67,0,0,0,401,214.21l2-.45,1.15,1.69c11.54,17,32.63,27.92,53.73,27.92a75.47,75.47,0,0,0,19-2.65l3.37-.91.4,3.47a193.67,193.67,0,0,1,1.26,21.4c0,102.79-77.12,195.38-179.38,215.38A6.15,6.15,0,0,0,298,487.4a6.17,6.17,0,0,0,7,4.73C412.85,471,494.25,373.24,494.25,264.69a224.2,224.2,0,0,0-2.9-34.49,6.18,6.18,0,0,0-7-5.17,5.86,5.86,0,0,0-1.83.59C476.15,228.81,466,231,457.85,231c-19.3,0-38.35-11.21-46.31-27.26a6.15,6.15,0,0,0-7.28-3.16,61,61,0,0,1-17.83,2.93A62.73,62.73,0,0,1,323.83,141a61.37,61.37,0,0,1,2.95-17.93,6.15,6.15,0,0,0-3.18-7.23c-16.05-8-27.26-27-27.26-46.31,0-8.18,2.23-18.3,5.43-24.62A6.17,6.17,0,0,0,297.21,36,223.5,223.5,0,0,0,262.67,33.13Z" transform="translate(-25.13 -27.13)"/></svg>