<svg class="icoInformacion" data-name="icoInformacion" xmlns="http://www.w3.org/2000/svg" viewBox="0 0 302.8 291.75"><defs><style>.cls-4{fill:#939393;}.cls-5{fill:#ff3867;}</style></defs><title>ico_informacion</title><path class="cls-4" d="M249.93,149.34Z" transform="translate(0 0)"/><path class="cls-4" d="M254.51,108.92c-.51.1-1,.19-1.54.27a42.23,42.23,0,0,1-4.33.51c-5.19.34-10.32-.54-15.47-1h0l-2.25-.2A108.45,108.45,0,0,1,130.44,257.8h-.1a107.15,107.15,0,0,1-40.85-8,19.7,19.7,0,0,0-13.62-.46L34.66,263.11l11.25-31a19.49,19.49,0,0,0-2.68-18.33A108.43,108.43,0,0,1,200.48,66.56a17.84,17.84,0,0,1,.09-2.53h0c.66-6.14,4.33-12.41,9.67-15.27l0,0a13.2,13.2,0,0,1,2.08-.9,129.87,129.87,0,0,0-81.87-29C58.53,18.88,0,77.39,0,149.31a130,130,0,0,0,24.8,76.53L6.22,277a11,11,0,0,0,10.34,14.76,10.85,10.85,0,0,0,3.48-.57l62-20.69a128.57,128.57,0,0,0,48.12,9.31h.38c71.86-.07,130.38-58.6,130.45-130.46A130,130,0,0,0,254.51,108.92Z" transform="translate(0 0)"/><polygon class="cls-4" points="249.94 150.33 249.93 148.33 249.94 148.33 249.94 150.33"/><path class="cls-4" d="M130.47,174.14a18.83,18.83,0,1,0-18.83-18.83h0a18.83,18.83,0,0,0,18.81,18.83Z" transform="translate(0 0)"/><path class="cls-4" d="M183.64,174.14a18.83,18.83,0,1,0-18.84-18.83,18.83,18.83,0,0,0,18.84,18.83Z" transform="translate(0 0)"/><path class="cls-4" d="M77.29,174.14A18.83,18.83,0,1,0,58.47,155.3h0A18.83,18.83,0,0,0,77.29,174.14Z" transform="translate(0 0)"/><path class="cls-5" d="M237.09,0A65.74,65.74,0,1,0,302.8,65.77v0A65.72,65.72,0,0,0,237.09,0Zm20.35,97.22H225.68v-10h9V54.73l.17-7.1-.17-.18-5.63,3.47-5.59,3.28L222,42.85l18.63-12.16h8V87.21h8.88Z" transform="translate(0 0)"/></svg>