<svg class="icoCookies" data-name="icoCookies" xmlns="http://www.w3.org/2000/svg" viewBox="0 0 476.12 476.12"><defs><style>.cls-1{fill:#01afaf;}</style></defs><title>ico_cookies2</title><path class="cls-1" d="M381.8,264.69a9.16,9.16,0,1,1-9.16-9.16A9.16,9.16,0,0,1,381.8,264.69Z" transform="translate(-24.63 -26.63)"/><path class="cls-1" d="M372.64,277.35a12.66,12.66,0,1,1,12.66-12.66A12.68,12.68,0,0,1,372.64,277.35Zm0-18.32a5.66,5.66,0,1,0,5.66,5.66A5.67,5.67,0,0,0,372.64,259Z" transform="translate(-24.63 -26.63)"/><path class="cls-1" d="M290.18,209.72a9.17,9.17,0,1,1-9.16-9.17A9.16,9.16,0,0,1,290.18,209.72Z" transform="translate(-24.63 -26.63)"/><path class="cls-1" d="M281,222.38a12.67,12.67,0,1,1,12.66-12.66A12.68,12.68,0,0,1,281,222.38Zm0-18.33a5.67,5.67,0,1,0,5.66,5.67A5.67,5.67,0,0,0,281,204.05Z" transform="translate(-24.63 -26.63)"/><path class="cls-1" d="M271.85,402.13a9.16,9.16,0,1,1-9.16-9.16A9.16,9.16,0,0,1,271.85,402.13Z" transform="translate(-24.63 -26.63)"/><path class="cls-1" d="M262.69,414.79a12.66,12.66,0,1,1,12.66-12.66A12.68,12.68,0,0,1,262.69,414.79Zm0-18.32a5.66,5.66,0,1,0,5.66,5.66A5.67,5.67,0,0,0,262.69,396.47Z" transform="translate(-24.63 -26.63)"/><path class="cls-1" d="M134.42,237.2a9.17,9.17,0,1,1-9.17-9.16A9.18,9.18,0,0,1,134.42,237.2Z" transform="translate(-24.63 -26.63)"/><path class="cls-1" d="M125.25,249.87a12.67,12.67,0,1,1,12.67-12.67A12.68,12.68,0,0,1,125.25,249.87Zm0-18.33a5.67,5.67,0,1,0,5.67,5.66A5.67,5.67,0,0,0,125.25,231.54Z" transform="translate(-24.63 -26.63)"/><path class="cls-1" d="M161.9,393a36.65,36.65,0,1,0-36.65-36.65A36.65,36.65,0,0,0,161.9,393Zm0-55a18.33,18.33,0,1,1-18.32,18.33A18.33,18.33,0,0,1,161.9,338Z" transform="translate(-24.63 -26.63)"/><path class="cls-1" d="M161.9,396.47h0a40.15,40.15,0,1,1,40.15-40.15A40.27,40.27,0,0,1,161.9,396.47Zm0-73.3a33.15,33.15,0,1,0,0,66.3h0a33.15,33.15,0,1,0,0-66.3Zm0,55a21.83,21.83,0,1,1,21.83-21.82A21.85,21.85,0,0,1,161.9,378.14Zm0-36.65a14.83,14.83,0,1,0,14.83,14.83A14.84,14.84,0,0,0,161.9,341.49Z" transform="translate(-24.63 -26.63)"/><path class="cls-1" d="M244.37,145.58a36.65,36.65,0,1,0-36.65,36.65A36.65,36.65,0,0,0,244.37,145.58Zm-55,0a18.33,18.33,0,1,1,18.33,18.32A18.33,18.33,0,0,1,189.39,145.58Z" transform="translate(-24.63 -26.63)"/><path class="cls-1" d="M207.72,185.73a40.15,40.15,0,1,1,40.15-40.15h0A40.27,40.27,0,0,1,207.72,185.73Zm0-73.3a33.15,33.15,0,1,0,33.15,33.15A33.19,33.19,0,0,0,207.72,112.43Zm0,55a21.83,21.83,0,1,1,21.82-21.82A21.85,21.85,0,0,1,207.72,167.4Zm0-36.65a14.83,14.83,0,1,0,14.82,14.83A14.84,14.84,0,0,0,207.72,130.75Z" transform="translate(-24.63 -26.63)"/><path class="cls-1" d="M308.5,347.15a36.65,36.65,0,1,0,36.65-36.65A36.65,36.65,0,0,0,308.5,347.15Zm55,0a18.33,18.33,0,1,1-18.33-18.32A18.33,18.33,0,0,1,363.48,347.15Z" transform="translate(-24.63 -26.63)"/><path class="cls-1" d="M345.15,387.3A40.19,40.19,0,0,1,305,347.15h0a40.15,40.15,0,1,1,40.15,40.15ZM312,347.15A33.15,33.15,0,1,0,345.15,314,33.19,33.19,0,0,0,312,347.15ZM345.15,369A21.83,21.83,0,1,1,367,347.15,21.85,21.85,0,0,1,345.15,369Zm0-36.65A14.83,14.83,0,1,0,360,347.15,14.84,14.84,0,0,0,345.15,332.33Z" transform="translate(-24.63 -26.63)"/><path class="cls-1" d="M244.37,310.5A27.49,27.49,0,1,0,216.88,283a27.48,27.48,0,0,0,27.49,27.48Zm0-36.65A9.17,9.17,0,1,1,235.2,283,9.17,9.17,0,0,1,244.37,273.85Z" transform="translate(-24.63 -26.63)"/><path class="cls-1" d="M244.37,314a31,31,0,1,1,31-31A31,31,0,0,1,244.37,314Zm0-55a24,24,0,1,0,24,24A24,24,0,0,0,244.37,259Zm0,36.65A12.67,12.67,0,1,1,257,283,12.68,12.68,0,0,1,244.37,295.68Zm0-18.33A5.67,5.67,0,1,0,250,283,5.67,5.67,0,0,0,244.37,277.35Z" transform="translate(-24.63 -26.63)"/><path class="cls-1" d="M271.85,490.09a9.16,9.16,0,1,1-9.16-9.16A9.16,9.16,0,0,1,271.85,490.09Z" transform="translate(-24.63 -26.63)"/><path class="cls-1" d="M262.69,502.75a12.66,12.66,0,1,1,12.66-12.66A12.68,12.68,0,0,1,262.69,502.75Zm0-18.32a5.66,5.66,0,1,0,5.66,5.66A5.67,5.67,0,0,0,262.69,484.43Z" transform="translate(-24.63 -26.63)"/><path class="cls-1" d="M481.12,222.94c-5.94,3-15.52,5.1-23.27,5.1-18.2,0-36.14-10.52-43.62-25.59a9.17,9.17,0,0,0-10.83-4.7,58.55,58.55,0,0,1-17,2.8A59.63,59.63,0,0,1,326.83,141a58.6,58.6,0,0,1,2.8-17,9.16,9.16,0,0,0-4.7-10.83c-15.07-7.47-25.59-25.41-25.59-43.62,0-7.75,2.1-17.33,5.1-23.27a9.16,9.16,0,0,0-4-12.31,9.35,9.35,0,0,0-2.74-.88,227.51,227.51,0,0,0-35-2.94c-126.44,0-234.56,107.94-234.56,234.56,0,110,82.46,209,191.76,230.4a9.16,9.16,0,0,0,4-17.88l-.5-.1c-100.9-19.73-176.95-111-176.95-212.42,0-117.21,99-216.23,216.23-216.23a190.45,190.45,0,0,1,21.08,1.23A77.83,77.83,0,0,0,281,69.53c0,22.24,11.72,44.3,29.22,56.21A70.57,70.57,0,0,0,308.5,141a78,78,0,0,0,77.88,77.88,70,70,0,0,0,15.26-1.74c11.91,17.5,34,29.23,56.21,29.23a78.73,78.73,0,0,0,19.84-2.75,190.14,190.14,0,0,1,1.24,21.07c0,101.37-76.05,192.69-177,212.42a9.16,9.16,0,0,0,3.52,18c109.3-21.38,191.76-120.45,191.76-230.4a226.37,226.37,0,0,0-2.94-35,9.16,9.16,0,0,0-10.45-7.66A9.06,9.06,0,0,0,481.12,222.94Z" transform="translate(-24.63 -26.63)"/><path class="cls-1" d="M221.9,498.82a13.21,13.21,0,0,1-2.77-.31C108.29,476.82,24.63,376.29,24.63,264.69a228.67,228.67,0,0,1,19.16-91.46A247.22,247.22,0,0,1,171.31,45.76a228.67,228.67,0,0,1,91.38-19.13,231.06,231.06,0,0,1,35.54,3A12.41,12.41,0,0,1,302,30.83a12.67,12.67,0,0,1,5.6,17c-2.74,5.42-4.73,14.54-4.73,21.69,0,16.93,9.72,33.58,23.65,40.49a12.64,12.64,0,0,1,6.5,15,54.8,54.8,0,0,0-2.66,16.06,56.2,56.2,0,0,0,56.06,56,55,55,0,0,0,15.94-2.63,12.64,12.64,0,0,1,15,6.47c6.91,13.93,23.56,23.65,40.49,23.65,7.15,0,16.28-2,21.69-4.73h0a12.88,12.88,0,0,1,3.77-1.21,12.69,12.69,0,0,1,14.45,10.58,230.3,230.3,0,0,1,3,35.49c0,111.62-83.66,212.15-194.59,233.86a12.66,12.66,0,0,1-5-24.83c99.37-19.44,174.23-109.28,174.23-209,0-5.55-.29-11.16-.81-16.72a81.89,81.89,0,0,1-16.74,1.9c-22.41,0-44.8-11.25-57.77-28.83a74.25,74.25,0,0,1-13.71,1.34A81.62,81.62,0,0,1,305,141a73.54,73.54,0,0,1,1.35-13.73c-17.59-13-28.83-35.36-28.83-57.74a82.09,82.09,0,0,1,1.89-16.77c-5.56-.52-11.17-.79-16.73-.8C147.38,52,50,149.38,50,264.69c0,99.71,74.83,189.54,174.08,209l.64.13a12.67,12.67,0,0,1,9.58,15.13A12.7,12.7,0,0,1,221.9,498.82ZM262.67,33.63c-125.23,0-231,105.81-231,231.06,0,108.32,81.23,205.89,188.94,227a5.7,5.7,0,0,0,6.86-4.27,5.65,5.65,0,0,0-4.28-6.76l-.3-.06-.11,0C120.25,460.5,43,367.7,43,264.69,43,145.58,143.58,45,262.69,45a192.68,192.68,0,0,1,21.48,1.26l4,.46-1.07,3.93a75,75,0,0,0-2.62,19c0,20.91,10.87,41.84,27.69,53.29l2,1.34-.53,2.33A66.67,66.67,0,0,0,312,141a74.6,74.6,0,0,0,74.39,74.37,66.55,66.55,0,0,0,14.47-1.65l2.33-.53,1.34,2c11.45,16.82,32.38,27.7,53.32,27.7a74.89,74.89,0,0,0,18.92-2.63l3.93-1.07.47,4.05a194.89,194.89,0,0,1,1.26,21.46c0,103-77.29,195.82-179.79,215.87a5.66,5.66,0,0,0,2.27,11.09C412.53,470.58,493.75,373,493.75,264.69a224.4,224.4,0,0,0-2.89-34.41,5.68,5.68,0,0,0-6.47-4.76,5.57,5.57,0,0,0-1.69.54h0c-6.38,3.23-16.6,5.48-24.85,5.48-19.49,0-38.71-11.32-46.76-27.53a5.64,5.64,0,0,0-6.69-2.91,61.52,61.52,0,0,1-18,3A63.24,63.24,0,0,1,323.33,141a62.46,62.46,0,0,1,3-18.09,5.62,5.62,0,0,0-2.93-6.62c-16.21-8-27.53-27.27-27.53-46.76,0-8.25,2.25-18.47,5.48-24.85a5.68,5.68,0,0,0-2.5-7.61,5.86,5.86,0,0,0-1.69-.54A223.81,223.81,0,0,0,262.67,33.63Z" transform="translate(-24.63 -26.63)"/></svg>