<svg id="icoSanitarios" data-name="icoSanitarios" xmlns="http://www.w3.org/2000/svg" viewBox="0 0 518 641.59"><defs><style>.cls-1,.cls-2{fill:#00afaf;}.cls-1{stroke:#00afaf;stroke-miterlimit:10;stroke-width:6px;}</style></defs><title>ico_sanitarios</title><path class="cls-1" d="M116.57,662.62a256,256,0,0,0,325.89,30,10,10,0,0,0-11.33-16.48A234.66,234.66,0,0,1,297.59,717.6c-130.13,0-236-105.87-236-236s105.87-236,236-236,236,105.87,236,236a234.59,234.59,0,0,1-41.4,133.53,10,10,0,0,0,16.49,11.33A256,256,0,0,0,116.57,300.58a256,256,0,0,0,0,362Z" transform="translate(-38.59 -99.01)"/><path class="cls-1" d="M471.55,645.55a10,10,0,1,0,7.06,17.07h0a10,10,0,0,0-7.07-17.06Z" transform="translate(-38.59 -99.01)"/><path class="cls-1" d="M243.06,521.53a26.37,26.37,0,0,1-50.94,0,10,10,0,0,0-9.65-7.41,10.15,10.15,0,0,0-2.6.34,10,10,0,0,0-7.07,12.25,46.37,46.37,0,0,0,89.58,0,10,10,0,0,0-19.32-5.18Z" transform="translate(-38.59 -99.01)"/><path class="cls-1" d="M377.6,561.08a46.42,46.42,0,0,0,44.78-34.37,10,10,0,1,0-19.31-5.18,26.37,26.37,0,0,1-50.95,0,10,10,0,0,0-9.65-7.41,10.13,10.13,0,0,0-2.59.34,10,10,0,0,0-7.07,12.25A46.43,46.43,0,0,0,377.6,561.08Z" transform="translate(-38.59 -99.01)"/><path class="cls-2" d="M270.4,191.45h15.38v15.38a13.86,13.86,0,1,0,27.71,0V191.45H328.9a13.86,13.86,0,1,0,0-27.71H313.49V148.37a13.86,13.86,0,0,0-27.71,0v15.37H270.4a13.86,13.86,0,0,0,0,27.71Z" transform="translate(-38.59 -99.01)"/><path class="cls-2" d="M489.48,103.93A13.83,13.83,0,0,0,478.92,99H120.37a13.86,13.86,0,0,0-13.65,16.18l27.71,165.4a.25.25,0,0,0,0,.07c5.61.57,11.19,1.37,16.75,2.32,6.14,1,.25,1.25,6.36,2.47l6.26,1.24c35.85-22.88,77.59-42.27,135.85-42.27,48.81,0,100.08,20.26,137.37,46.25l2.78-1c5.07-1.77,4.15-1.49,9.3-3a149.13,149.13,0,0,1,15.06-3.73h0l-.15-.13a10.63,10.63,0,0,0,.78-2.22l27.72-165.4A14,14,0,0,0,489.48,103.93ZM439.38,265a256.86,256.86,0,0,0-279.44.05L136.78,126.72H462.54Z" transform="translate(-38.59 -99.01)"/><path class="cls-2" d="M42.92,514.17l.12.9m508.92-74a260.23,260.23,0,0,0-91.68-160.6c.28-.75-21.28-16.35-22.44-16.94l-2.35-1c-40.6-26.15-88.79-37.5-140.5-37.5s-94.1,15.68-134.67,41.86c0,0-27.47,18.52-28.7,18.65C73.84,333.32,40.94,401.49,40.94,482.14a260.94,260.94,0,0,0,2,31.93l22-3.22a257.15,257.15,0,0,0,172.69-74,259.45,259.45,0,0,0,155.32,51.33h.16c46.89,0,92-13.07,132-36.8l7.52-5.36S550.22,442,552,441.08ZM295,248.91c107.78,0,198.4,74,224.44,173.67a230.78,230.78,0,0,1-126.37,37.71H393A231.1,231.1,0,0,1,168.39,286.72,230.8,230.8,0,0,1,295,248.91ZM144.5,304.64A258.75,258.75,0,0,0,216,419,230.39,230.39,0,0,1,62.88,483.1c0-.66-.08-1.31-.08-2C62.77,410.49,94.6,347.24,144.5,304.64Z" transform="translate(-38.59 -99.01)"/></svg>